<?xml version="1.0" encoding="utf-8"?>
<!-- Generator: Adobe Illustrator 21.0.2, SVG Export Plug-In . SVG Version: 6.00 Build 0)  -->
<svg version="1.1" id="Layer_1" xmlns="http://www.w3.org/2000/svg" xmlns:xlink="http://www.w3.org/1999/xlink" x="0px" y="0px"
	 viewBox="0 0 140 140" style="enable-background:new 0 0 140 140;" xml:space="preserve">
<style type="text/css">
	.st0{fill:#000;}
</style>
<g>
	<path class="st0" d="M69,56c-8,0-11.9,9.3-11.9,18.6c0,5.7,1.8,9,7.7,9c3.5,0,7-2.1,9.8-4.8l3-18.6C75.1,57.2,72.8,56,69,56z"/>
	<path class="st0" d="M70,0C31.3,0,0,31.3,0,70c0,38.7,31.3,70,70,70c38.7,0,70-31.3,70-70C140,31.3,108.7,0,70,0z M93.6,96.4
		c-9.6,0-14-4.4-16.1-10.8c-4.4,4.6-10.2,9.2-19,9.2c-9.9,0-16.2-6.7-16.2-18.6c0-20,10.5-32.4,23.1-32.4c7.7,0,11.3,2.8,14,6.2
		l0.8-5.2h14.8l-5.9,36.1c-1,5,1,7.6,6.7,7.6c7.6,0,13.1-6.9,13.1-19.1c0-22.2-15.3-37.4-38.7-37.4c-23.6,0-38.4,15.9-38.4,38.4
		C31.7,92.6,46,109,69.5,109c9,0,16.5-1.9,22.8-6.2l4.1,5.9c-7,5-16.8,7.7-27.5,7.7c-28.6,0-46.4-19.5-46.4-46.2
		c0-26.9,19.2-46.7,47.7-46.7c28.3,0,47.2,18.9,47.2,45.3C117.5,85,108.9,96.4,93.6,96.4z"/>
</g>
</svg>
