<?xml version="1.0" encoding="utf-8"?>
<!-- Generator: Adobe Illustrator 21.0.2, SVG Export Plug-In . SVG Version: 6.00 Build 0)  -->
<svg version="1.1" id="Layer_1" xmlns="http://www.w3.org/2000/svg" xmlns:xlink="http://www.w3.org/1999/xlink" x="0px" y="0px"
	 viewBox="0 0 460.9 406.9" style="enable-background:new 0 0 460.9 406.9;" xml:space="preserve">
<style type="text/css">
	.st0{fill:#000;}
</style>
<path class="st0" d="M460.9,59.7c-17.7,7.9-35.5,11.8-55.2,15.7c19.7-11.8,35.5-29.5,41.4-53.2c-17.7,9.9-39.4,17.7-59.1,23.6
	c-17.7-17.7-41.4-29.5-69-29.5c-53.2,0-94.6,41.4-94.6,94.6c0,7.9,0,13.8,2,21.7c-78.8-3.9-147.8-41.4-195-98.5
	c-7.9,13.8-11.8,29.6-11.8,47.3c0,33.5,15.8,61.1,41.4,78.8c-15.7-2-29.5-5.9-43.3-11.8v2c0,45.3,33.5,84.7,76.8,92.6
	c-7.9,0-17.7,2-25.6,2c-5.9,0-11.8,0-17.7-2c11.8,37.4,47.3,65,88.7,65c-31.5,25.6-72.9,41.4-118.2,41.4c-7.9,0-15.8,0-21.7-2
	c41.4,27.6,90.6,43.3,145.8,43.3c173.4,0,269.9-143.8,269.9-269.9V109C431.3,95.1,447.1,79.4,460.9,59.7"/>
</svg>
